# xmcd
#
# Track frame offsets:
#	150
#	10883
#	21746
#	31257
#	43671
#	55244
#	66331
#	75140
#	85357
#	95086
#	107082
#	119480
#	129063
#	137837
#	149070
#	159660
#	168934
#	180752
#	189945
#	200893
#	214175
#	225142
#	235514
#	245139
#	256491
#	267270
#	277465
#	289824
#	299397
#	312504
#	321777
#	333553
#
# Disc length: 4610 seconds
#
# Revision: 1
# Processed by: cddbd v1.5.2PL0 Copyright (c) Steve Scherf et al.
# Submitted via: audiograbber 1.83.01
#
DISCID=e3120020
DTITLE=Various Artist - Imperial Hillbilly Vol. 1
DYEAR=1900
DGENRE=Country
TTITLE0=Earl Songer - Whoopie Baby
TTITLE1=Eddie Hazelwood - Back in Texas
TTITLE2=Harry Rodcay - If You Won't Say You Love Me
TTITLE3=Billy Briggs - The Sissy Song
TTITLE4=Dub Dickerson - Owl Hoot Blues
TTITLE5=Gene Henslee - Dig'n and Datin'
TTITLE6=Red Romine - Money in the Bank
TTITLE7=Jimmy Kelly - Dunce Cap
TTITLE8=Gene Henslee - I'm Like a Kid a'Waitin'
TTITLE9=Charlie Adams - I'm an Army Man
TTITLE10=Bill Mack - Big Bad Daddy
TTITLE11=Ed Camp - I'm Gonna Put the Wammy On You
TTITLE12=Merle Kilgore - Seeing Double, Feeling Single
TTITLE13=Van Howard - I'm Not a Kid Anymore
TTITLE14=Billy Starr - Hound Dog
TTITLE15=Curley Sanders - Too Much Lovin'
TTITLE16=Billy Briggs - Coyote Song
TTITLE17=Doyle Wright - Someday You'll Return
TTITLE18=Van Howard - Let's Spend Our Lives Together
TTITLE19=Eddie Dean - Okefenokee
TTITLE20=Dub Dickerson - Ain't Got No Doggone Girl
TTITLE21=Gene Henslee - What Will I Do
TTITLE22=Ed Camp - Tie a String Around Your Fingers
TTITLE23=Earl Songer - I Want Your Love
TTITLE24=Ed Camp - If I Catch You Flirtin' With My Baby
TTITLE25=Bill Mack - That's the Way I Like You
TTITLE26=Pete Lane - One-Two-Three-Skid-Doo
TTITLE27=Van Howard - You Broke My Heart Again
TTITLE28=Harry Rodcay - My Heart Keeps On Beatin'
TTITLE29=Charlie Walker - Two Red Lips
TTITLE30=Jimmie Heap - When They Operated On Papa
TTITLE31=Billy Briggs - North Pole Boogie
EXTD=
EXTT0=
EXTT1=
EXTT2=
EXTT3=
EXTT4=
EXTT5=
EXTT6=
EXTT7=
EXTT8=
EXTT9=
EXTT10=
EXTT11=
EXTT12=
EXTT13=
EXTT14=
EXTT15=
EXTT16=
EXTT17=
EXTT18=
EXTT19=
EXTT20=
EXTT21=
EXTT22=
EXTT23=
EXTT24=
EXTT25=
EXTT26=
EXTT27=
EXTT28=
EXTT29=
EXTT30=
EXTT31=
PLAYORDER=
